<mxfile host="app.diagrams.net" agent="Mozilla/5.0 (Macintosh; Intel Mac OS X 10_15_7) AppleWebKit/537.36 (KHTML, like Gecko) Chrome/129.0.0.0 Safari/537.36" version="24.7.12">
  <diagram name="페이지-1" id="lYCdYRVblKzqyRjs7s6s">
    <mxGraphModel dx="2074" dy="1121" grid="1" gridSize="10" guides="1" tooltips="1" connect="1" arrows="1" fold="1" page="1" pageScale="1" pageWidth="827" pageHeight="1169" math="0" shadow="0">
      <root>
        <mxCell id="0" />
        <mxCell id="1" parent="0" />
        <mxCell id="aGzjS2spZUT-ff1hEgCC-1" value="&lt;div&gt;사용자&amp;nbsp;&lt;/div&gt;" style="ellipse;whiteSpace=wrap;html=1;fillColor=#000066;fontColor=#FFFFFF;" vertex="1" parent="1">
          <mxGeometry x="55" y="180" width="100" height="70" as="geometry" />
        </mxCell>
        <mxCell id="aGzjS2spZUT-ff1hEgCC-2" value="" style="endArrow=classic;html=1;rounded=0;fontStyle=0;strokeWidth=2;exitX=1;exitY=0.5;exitDx=0;exitDy=0;entryX=0;entryY=0.5;entryDx=0;entryDy=0;" edge="1" parent="1" source="aGzjS2spZUT-ff1hEgCC-1" target="aGzjS2spZUT-ff1hEgCC-4">
          <mxGeometry width="50" height="50" relative="1" as="geometry">
            <mxPoint x="205" y="214.5" as="sourcePoint" />
            <mxPoint x="325" y="214.5" as="targetPoint" />
          </mxGeometry>
        </mxCell>
        <mxCell id="aGzjS2spZUT-ff1hEgCC-3" value="" style="rounded=0;whiteSpace=wrap;html=1;fillColor=none;strokeWidth=3;strokeColor=#c9daf8;fontStyle=1" vertex="1" parent="1">
          <mxGeometry x="275" y="130" width="580" height="400" as="geometry" />
        </mxCell>
        <mxCell id="aGzjS2spZUT-ff1hEgCC-4" value="SCM-manager 이동" style="rounded=1;whiteSpace=wrap;html=1;fillColor=#c9daf8;fontStyle=1" vertex="1" parent="1">
          <mxGeometry x="365" y="190" width="170" height="50" as="geometry" />
        </mxCell>
        <mxCell id="aGzjS2spZUT-ff1hEgCC-7" value="관리자 포탈&lt;div&gt;사용자&lt;/div&gt;" style="ellipse;whiteSpace=wrap;html=1;fillColor=#000066;fontColor=#FFFFFF;" vertex="1" parent="1">
          <mxGeometry x="55" y="310" width="100" height="70" as="geometry" />
        </mxCell>
        <mxCell id="aGzjS2spZUT-ff1hEgCC-8" value="" style="endArrow=classic;html=1;rounded=0;fontStyle=0;strokeWidth=2;exitX=1;exitY=0.5;exitDx=0;exitDy=0;entryX=0;entryY=0.5;entryDx=0;entryDy=0;" edge="1" parent="1" source="aGzjS2spZUT-ff1hEgCC-7" target="aGzjS2spZUT-ff1hEgCC-9">
          <mxGeometry width="50" height="50" relative="1" as="geometry">
            <mxPoint x="205" y="344.5" as="sourcePoint" />
            <mxPoint x="325" y="344.5" as="targetPoint" />
          </mxGeometry>
        </mxCell>
        <mxCell id="aGzjS2spZUT-ff1hEgCC-9" value="파이프라인 관리" style="rounded=1;whiteSpace=wrap;html=1;fillColor=#c9daf8;fontStyle=1" vertex="1" parent="1">
          <mxGeometry x="365" y="320" width="170" height="50" as="geometry" />
        </mxCell>
        <mxCell id="aGzjS2spZUT-ff1hEgCC-10" value="Repository 커밋 이벤트 발생" style="rounded=1;whiteSpace=wrap;html=1;fillColor=#c9daf8;fontStyle=1" vertex="1" parent="1">
          <mxGeometry x="605" y="190" width="170" height="50" as="geometry" />
        </mxCell>
        <mxCell id="aGzjS2spZUT-ff1hEgCC-11" value="" style="endArrow=classic;html=1;rounded=0;fontStyle=1;strokeWidth=2;strokeColor=#c9daf8;exitX=1;exitY=0.5;exitDx=0;exitDy=0;" edge="1" parent="1" source="aGzjS2spZUT-ff1hEgCC-4">
          <mxGeometry width="50" height="50" relative="1" as="geometry">
            <mxPoint x="505" y="215" as="sourcePoint" />
            <mxPoint x="605" y="214.5" as="targetPoint" />
          </mxGeometry>
        </mxCell>
        <mxCell id="aGzjS2spZUT-ff1hEgCC-12" value="파이프라인 실행" style="rounded=1;whiteSpace=wrap;html=1;fillColor=#c9daf8;fontStyle=1" vertex="1" parent="1">
          <mxGeometry x="605" y="320" width="170" height="50" as="geometry" />
        </mxCell>
        <mxCell id="aGzjS2spZUT-ff1hEgCC-13" value="" style="endArrow=classic;html=1;rounded=0;fontStyle=1;strokeWidth=2;strokeColor=#c9daf8;exitX=1;exitY=0.5;exitDx=0;exitDy=0;" edge="1" parent="1">
          <mxGeometry width="50" height="50" relative="1" as="geometry">
            <mxPoint x="535" y="345" as="sourcePoint" />
            <mxPoint x="605" y="344.5" as="targetPoint" />
          </mxGeometry>
        </mxCell>
        <mxCell id="aGzjS2spZUT-ff1hEgCC-14" value="ArgoCD 관리" style="rounded=1;whiteSpace=wrap;html=1;fillColor=#c9daf8;fontStyle=1" vertex="1" parent="1">
          <mxGeometry x="355" y="430" width="170" height="50" as="geometry" />
        </mxCell>
        <mxCell id="aGzjS2spZUT-ff1hEgCC-15" value="" style="endArrow=classic;html=1;rounded=0;fontStyle=1;strokeWidth=2;strokeColor=#c9daf8;exitX=0.5;exitY=1;exitDx=0;exitDy=0;entryX=0.5;entryY=0;entryDx=0;entryDy=0;" edge="1" parent="1" source="aGzjS2spZUT-ff1hEgCC-12" target="aGzjS2spZUT-ff1hEgCC-14">
          <mxGeometry width="50" height="50" relative="1" as="geometry">
            <mxPoint x="675" y="410.5" as="sourcePoint" />
            <mxPoint x="745" y="410" as="targetPoint" />
            <Array as="points">
              <mxPoint x="690" y="400" />
              <mxPoint x="440" y="400" />
            </Array>
          </mxGeometry>
        </mxCell>
        <mxCell id="aGzjS2spZUT-ff1hEgCC-17" value="" style="endArrow=classic;html=1;rounded=0;fontStyle=1;strokeWidth=2;strokeColor=#c9daf8;exitX=1;exitY=0.5;exitDx=0;exitDy=0;entryX=0;entryY=0.5;entryDx=0;entryDy=0;" edge="1" parent="1" source="aGzjS2spZUT-ff1hEgCC-14" target="aGzjS2spZUT-ff1hEgCC-18">
          <mxGeometry width="50" height="50" relative="1" as="geometry">
            <mxPoint x="535" y="460.5" as="sourcePoint" />
            <mxPoint x="605" y="460" as="targetPoint" />
          </mxGeometry>
        </mxCell>
        <mxCell id="aGzjS2spZUT-ff1hEgCC-18" value="helm chart topology 조회" style="rounded=1;whiteSpace=wrap;html=1;fillColor=#c9daf8;fontStyle=1" vertex="1" parent="1">
          <mxGeometry x="615" y="430" width="170" height="50" as="geometry" />
        </mxCell>
        <mxCell id="aGzjS2spZUT-ff1hEgCC-19" value="1) commit 이벤트 발생" style="text;html=1;align=center;verticalAlign=middle;whiteSpace=wrap;rounded=0;fontStyle=1" vertex="1" parent="1">
          <mxGeometry x="295" y="160" width="140" height="30" as="geometry" />
        </mxCell>
        <mxCell id="aGzjS2spZUT-ff1hEgCC-20" value="2&lt;span style=&quot;color: rgba(0, 0, 0, 0); font-family: monospace; font-size: 0px; text-align: start; text-wrap: nowrap;&quot;&gt;%3CmxGraphModel%3E%3Croot%3E%3CmxCell%20id%3D%220%22%2F%3E%3CmxCell%20id%3D%221%22%20parent%3D%220%22%2F%3E%3CmxCell%20id%3D%222%22%20value%3D%221)%20commit%20%EC%9D%B4%EB%B2%A4%ED%8A%B8%20%EB%B0%9C%EC%83%9D%22%20style%3D%22text%3Bhtml%3D1%3Balign%3Dcenter%3BverticalAlign%3Dmiddle%3BwhiteSpace%3Dwrap%3Brounded%3D0%3B%22%20vertex%3D%221%22%20parent%3D%221%22%3E%3CmxGeometry%20x%3D%22290%22%20y%3D%22210%22%20width%3D%22140%22%20height%3D%2230%22%20as%3D%22geometry%22%2F%3E%3C%2FmxCell%3E%3C%2Froot%3E%3C%2FmxGraphModel%3E&lt;/span&gt;) 파이프라인 실행" style="text;html=1;align=center;verticalAlign=middle;whiteSpace=wrap;rounded=0;fontStyle=1" vertex="1" parent="1">
          <mxGeometry x="285" y="290" width="140" height="30" as="geometry" />
        </mxCell>
        <mxCell id="aGzjS2spZUT-ff1hEgCC-22" value="3) ArgoCD 확인" style="text;html=1;align=center;verticalAlign=middle;whiteSpace=wrap;rounded=0;fontStyle=1" vertex="1" parent="1">
          <mxGeometry x="285" y="390" width="140" height="30" as="geometry" />
        </mxCell>
        <mxCell id="aGzjS2spZUT-ff1hEgCC-25" value="" style="rounded=0;whiteSpace=wrap;html=1;fillColor=none;strokeWidth=3;strokeColor=#c9daf8;fontStyle=1" vertex="1" parent="1">
          <mxGeometry x="290" y="630" width="580" height="400" as="geometry" />
        </mxCell>
        <mxCell id="aGzjS2spZUT-ff1hEgCC-27" value="관리자 포탈&lt;div&gt;사용자&lt;/div&gt;" style="ellipse;whiteSpace=wrap;html=1;fillColor=#000066;fontColor=#FFFFFF;" vertex="1" parent="1">
          <mxGeometry x="70" y="680" width="100" height="70" as="geometry" />
        </mxCell>
        <mxCell id="aGzjS2spZUT-ff1hEgCC-28" value="" style="endArrow=classic;html=1;rounded=0;fontStyle=0;strokeWidth=2;exitX=1;exitY=0.5;exitDx=0;exitDy=0;entryX=0;entryY=0.5;entryDx=0;entryDy=0;" edge="1" parent="1" source="aGzjS2spZUT-ff1hEgCC-27" target="aGzjS2spZUT-ff1hEgCC-29">
          <mxGeometry width="50" height="50" relative="1" as="geometry">
            <mxPoint x="220" y="714.5" as="sourcePoint" />
            <mxPoint x="340" y="714.5" as="targetPoint" />
          </mxGeometry>
        </mxCell>
        <mxCell id="aGzjS2spZUT-ff1hEgCC-29" value="Configuration" style="rounded=1;whiteSpace=wrap;html=1;fillColor=#c9daf8;fontStyle=1" vertex="1" parent="1">
          <mxGeometry x="380" y="690" width="130" height="50" as="geometry" />
        </mxCell>
        <mxCell id="aGzjS2spZUT-ff1hEgCC-32" value="테넌트 연결" style="rounded=1;whiteSpace=wrap;html=1;fillColor=#c9daf8;fontStyle=1" vertex="1" parent="1">
          <mxGeometry x="560" y="690" width="110" height="50" as="geometry" />
        </mxCell>
        <mxCell id="aGzjS2spZUT-ff1hEgCC-33" value="" style="endArrow=classic;html=1;rounded=0;fontStyle=1;strokeWidth=2;strokeColor=#c9daf8;exitX=1;exitY=0.5;exitDx=0;exitDy=0;" edge="1" parent="1" source="aGzjS2spZUT-ff1hEgCC-29">
          <mxGeometry width="50" height="50" relative="1" as="geometry">
            <mxPoint x="550" y="715" as="sourcePoint" />
            <mxPoint x="560" y="715" as="targetPoint" />
          </mxGeometry>
        </mxCell>
        <mxCell id="aGzjS2spZUT-ff1hEgCC-35" value="" style="endArrow=classic;html=1;rounded=0;fontStyle=1;strokeWidth=2;strokeColor=#c9daf8;exitX=0.5;exitY=1;exitDx=0;exitDy=0;entryX=0.5;entryY=0;entryDx=0;entryDy=0;" edge="1" parent="1" source="aGzjS2spZUT-ff1hEgCC-41">
          <mxGeometry width="50" height="50" relative="1" as="geometry">
            <mxPoint x="690" y="780.5" as="sourcePoint" />
            <mxPoint x="455" y="800" as="targetPoint" />
            <Array as="points">
              <mxPoint x="775" y="770" />
              <mxPoint x="455" y="770" />
            </Array>
          </mxGeometry>
        </mxCell>
        <mxCell id="aGzjS2spZUT-ff1hEgCC-36" value="" style="endArrow=classic;html=1;rounded=0;fontStyle=1;strokeWidth=2;strokeColor=#c9daf8;exitX=1;exitY=0.5;exitDx=0;exitDy=0;entryX=0;entryY=0.5;entryDx=0;entryDy=0;" edge="1" parent="1" source="aGzjS2spZUT-ff1hEgCC-43" target="aGzjS2spZUT-ff1hEgCC-37">
          <mxGeometry width="50" height="50" relative="1" as="geometry">
            <mxPoint x="540" y="825" as="sourcePoint" />
            <mxPoint x="620" y="830" as="targetPoint" />
          </mxGeometry>
        </mxCell>
        <mxCell id="aGzjS2spZUT-ff1hEgCC-37" value="vm 기반 미들웨어 계정&amp;nbsp;&lt;div&gt;및 프로젝트 생성&lt;/div&gt;" style="rounded=1;whiteSpace=wrap;html=1;fillColor=#c9daf8;fontStyle=1" vertex="1" parent="1">
          <mxGeometry x="630" y="800" width="170" height="50" as="geometry" />
        </mxCell>
        <mxCell id="aGzjS2spZUT-ff1hEgCC-39" value="1&lt;span style=&quot;color: rgba(0, 0, 0, 0); font-family: monospace; font-size: 0px; text-align: start; text-wrap: nowrap;&quot;&gt;%3CmxGraphModel%3E%3Croot%3E%3CmxCell%20id%3D%220%22%2F%3E%3CmxCell%20id%3D%221%22%20parent%3D%220%22%2F%3E%3CmxCell%20id%3D%222%22%20value%3D%221)%20commit%20%EC%9D%B4%EB%B2%A4%ED%8A%B8%20%EB%B0%9C%EC%83%9D%22%20style%3D%22text%3Bhtml%3D1%3Balign%3Dcenter%3BverticalAlign%3Dmiddle%3BwhiteSpace%3Dwrap%3Brounded%3D0%3B%22%20vertex%3D%221%22%20parent%3D%221%22%3E%3CmxGeometry%20x%3D%22290%22%20y%3D%22210%22%20width%3D%22140%22%20height%3D%2230%22%20as%3D%22geometry%22%2F%3E%3C%2FmxCell%3E%3C%2Froot%3E%3C%2FmxGraphModel%3E&lt;/span&gt;) 테넌트 생성" style="text;html=1;align=center;verticalAlign=middle;whiteSpace=wrap;rounded=0;fontStyle=1" vertex="1" parent="1">
          <mxGeometry x="280" y="660" width="140" height="30" as="geometry" />
        </mxCell>
        <mxCell id="aGzjS2spZUT-ff1hEgCC-40" value="2) vm, container 확인" style="text;html=1;align=center;verticalAlign=middle;whiteSpace=wrap;rounded=0;fontStyle=1" vertex="1" parent="1">
          <mxGeometry x="300" y="760" width="140" height="30" as="geometry" />
        </mxCell>
        <mxCell id="aGzjS2spZUT-ff1hEgCC-41" value="Ci/CD 테넌트 연결" style="rounded=1;whiteSpace=wrap;html=1;fillColor=#c9daf8;fontStyle=1" vertex="1" parent="1">
          <mxGeometry x="720" y="690" width="110" height="50" as="geometry" />
        </mxCell>
        <mxCell id="aGzjS2spZUT-ff1hEgCC-42" value="" style="endArrow=classic;html=1;rounded=0;fontStyle=1;strokeWidth=2;strokeColor=#c9daf8;exitX=1;exitY=0.5;exitDx=0;exitDy=0;" edge="1" parent="1">
          <mxGeometry width="50" height="50" relative="1" as="geometry">
            <mxPoint x="670" y="715" as="sourcePoint" />
            <mxPoint x="720" y="715" as="targetPoint" />
          </mxGeometry>
        </mxCell>
        <mxCell id="aGzjS2spZUT-ff1hEgCC-43" value="vm or container" style="rhombus;whiteSpace=wrap;html=1;fillColor=#C9DAF8;" vertex="1" parent="1">
          <mxGeometry x="378" y="805" width="154" height="40" as="geometry" />
        </mxCell>
        <mxCell id="aGzjS2spZUT-ff1hEgCC-44" value="3) vm" style="text;html=1;align=center;verticalAlign=middle;whiteSpace=wrap;rounded=0;fontStyle=1" vertex="1" parent="1">
          <mxGeometry x="440" y="780" width="140" height="30" as="geometry" />
        </mxCell>
        <mxCell id="aGzjS2spZUT-ff1hEgCC-45" value="3) container" style="text;html=1;align=center;verticalAlign=middle;whiteSpace=wrap;rounded=0;fontStyle=1" vertex="1" parent="1">
          <mxGeometry x="330" y="850" width="140" height="30" as="geometry" />
        </mxCell>
        <mxCell id="aGzjS2spZUT-ff1hEgCC-46" value="" style="endArrow=classic;html=1;rounded=0;fontStyle=1;strokeWidth=2;strokeColor=#c9daf8;entryX=0;entryY=0.5;entryDx=0;entryDy=0;" edge="1" parent="1" target="aGzjS2spZUT-ff1hEgCC-47">
          <mxGeometry width="50" height="50" relative="1" as="geometry">
            <mxPoint x="450" y="848" as="sourcePoint" />
            <mxPoint x="620" y="910" as="targetPoint" />
            <Array as="points">
              <mxPoint x="450" y="905" />
            </Array>
          </mxGeometry>
        </mxCell>
        <mxCell id="aGzjS2spZUT-ff1hEgCC-47" value="container 기반 미들웨어 계정&amp;nbsp;&lt;div&gt;및 프로젝트 생성&lt;/div&gt;" style="rounded=1;whiteSpace=wrap;html=1;fillColor=#c9daf8;fontStyle=1" vertex="1" parent="1">
          <mxGeometry x="630" y="880" width="170" height="50" as="geometry" />
        </mxCell>
        <mxCell id="aGzjS2spZUT-ff1hEgCC-48" value="ArgoCD Process" style="text;html=1;align=center;verticalAlign=middle;whiteSpace=wrap;rounded=0;fontSize=20;fontStyle=1" vertex="1" parent="1">
          <mxGeometry x="25" y="40" width="250" height="30" as="geometry" />
        </mxCell>
        <mxCell id="aGzjS2spZUT-ff1hEgCC-50" value="&lt;span style=&quot;font-weight: normal;&quot;&gt;ArgoCD 기반 application Topology 제공 기능&lt;/span&gt;" style="text;html=1;align=center;verticalAlign=middle;whiteSpace=wrap;rounded=0;fontSize=12;fontStyle=1" vertex="1" parent="1">
          <mxGeometry x="60" y="80" width="250" height="30" as="geometry" />
        </mxCell>
        <mxCell id="aGzjS2spZUT-ff1hEgCC-51" value="미들웨어 연동 Process" style="text;html=1;align=center;verticalAlign=middle;whiteSpace=wrap;rounded=0;fontSize=20;fontStyle=1" vertex="1" parent="1">
          <mxGeometry x="45" y="560" width="250" height="30" as="geometry" />
        </mxCell>
        <mxCell id="aGzjS2spZUT-ff1hEgCC-52" value="&lt;span style=&quot;font-weight: normal;&quot;&gt;미들웨어 type별 프로젝트 및 계정 생성 제공 기능&lt;/span&gt;" style="text;html=1;align=center;verticalAlign=middle;whiteSpace=wrap;rounded=0;fontSize=12;fontStyle=1" vertex="1" parent="1">
          <mxGeometry x="70" y="600" width="250" height="30" as="geometry" />
        </mxCell>
      </root>
    </mxGraphModel>
  </diagram>
</mxfile>
